<?xml version="1.0" encoding="UTF-8"?>
<svg width="1024px" height="1024px" viewBox="0 0 1024 1024" version="1.1" xmlns="http://www.w3.org/2000/svg" xmlns:xlink="http://www.w3.org/1999/xlink">
    <title>icon</title>
    <g id="ios" stroke="none" stroke-width="1" fill="none" fill-rule="evenodd">
        <g id="icon" fill="#393939">
            <path d="M393.585561,669.29532 C387.168449,669.29532 380.751337,666.888179 375.938503,662.073897 L255.617647,533.693047 C246.794118,524.064483 246.794118,510.424018 255.617647,500.795454 L375.938503,372.414604 C384.762032,362.78604 400.002674,361.98366 409.628342,370.809843 C419.254011,379.636027 420.05615,394.881253 411.23262,404.509816 C411.23262,404.509816 411.23262,404.509816 410.430481,405.312197 L305.350267,517.645441 L410.430481,629.978685 C419.254011,639.607248 419.254011,654.852474 409.628342,663.678658 C404.815508,667.690559 399.200535,670.0977 393.585561,670.0977 L393.585561,669.29532 Z M629.414439,669.29532 C615.778075,669.29532 605.350267,658.864376 605.350267,645.22391 C605.350267,638.804868 607.756684,633.188206 611.76738,629.176304 L716.847594,516.84306 L611.76738,404.509816 C602.94385,394.881253 603.745989,379.636027 613.371658,370.809843 C622.997326,361.98366 638.237968,362.78604 647.061497,371.612224 L767.382353,499.993074 C776.205882,509.621638 776.205882,523.262103 767.382353,532.890667 L647.061497,661.271517 C642.248663,666.085799 635.831551,669.29532 629.414439,669.29532 Z M463.371658,772 C461.76738,772 460.163102,772 458.558824,771.19762 C445.724599,768.790479 436.90107,755.952394 440.109626,743.114309 C440.109626,743.114309 440.109626,743.114309 440.109626,743.114309 L536.36631,272.117065 C538.772727,259.27898 551.606952,250.452796 564.441176,253.662318 C577.275401,256.871839 586.09893,268.907543 582.890374,281.745628 L582.890374,281.745628 L486.63369,752.742872 C485.029412,763.976197 474.601604,772 463.371658,772 Z" id="Combined-Shape"></path>
        </g>
    </g>
</svg>