<svg xmlns="http://www.w3.org/2000/svg" viewBox="0 0 19 24"><path d="M7.125 0L5.937 1.2h-4.75C.532 1.2 0 1.738 0 2.4c0 .662.532 1.2 1.188 1.2h16.625C18.468 3.6 19 3.062 19 2.4c0-.662-.532-1.2-1.188-1.2h-4.75L11.876 0h-4.75zM1.187 6v15.6c0 1.32 1.07 2.4 2.375 2.4h11.876c1.306 0 2.374-1.08 2.374-2.4V6H1.188zm4.75 2.4c.656 0 1.188.538 1.188 1.2v10.8c0 .662-.532 1.2-1.188 1.2a1.194 1.194 0 01-1.187-1.2V9.6c0-.662.532-1.2 1.188-1.2zm7.125 0c.656 0 1.188.538 1.188 1.2v10.8c0 .662-.532 1.2-1.188 1.2a1.194 1.194 0 01-1.187-1.2V9.6c0-.662.532-1.2 1.188-1.2z"/></svg>
