<svg xmlns="http://www.w3.org/2000/svg" viewBox="0 0 24 24"><g><path d="M14.604 14.052l1.68-2.904a.424.424 0 00-.096-.54l-1.776-1.392c.036-.264.06-.54.06-.816 0-.276-.024-.552-.06-.828l1.776-1.392a.424.424 0 00.096-.54l-1.68-2.904a.425.425 0 00-.516-.18L12 3.396a6.17 6.17 0 00-1.416-.828l-.312-2.22A.437.437 0 009.852 0h-3.36a.436.436 0 00-.42.36L5.76 2.58a6.436 6.436 0 00-1.416.828l-2.088-.84a.425.425 0 00-.516.18L.06 5.652a.424.424 0 00.096.54l1.776 1.392c-.036.264-.06.54-.06.816 0 .276.024.552.06.828L.156 10.62a.424.424 0 00-.096.54l1.68 2.904c.108.18.324.252.516.18l2.088-.84c.432.336.9.612 1.416.828l.312 2.22a.437.437 0 00.42.348h3.36a.436.436 0 00.42-.36l.312-2.22A6.436 6.436 0 0012 13.392l2.088.84c.192.072.408 0 .516-.18zM8.172 10.8c-1.32 0-2.4-1.08-2.4-2.4 0-1.32 1.08-2.4 2.4-2.4 1.32 0 2.4 1.08 2.4 2.4 0 1.32-1.08 2.4-2.4 2.4zM23.904 20.004l-1.152-.888c.024-.168.048-.348.048-.528 0-.18-.012-.36-.048-.528l1.14-.888a.274.274 0 00.06-.348l-1.08-1.86c-.06-.12-.204-.156-.336-.12l-1.332.54a3.621 3.621 0 00-.912-.528l-.204-1.416a.259.259 0 00-.252-.24h-2.148c-.132 0-.252.096-.264.228l-.204 1.416a4.303 4.303 0 00-.912.528l-1.332-.54a.276.276 0 00-.336.12l-1.08 1.86c-.06.12-.048.264.06.348l1.14.888a3.774 3.774 0 000 1.056l-1.14.888a.274.274 0 00-.06.348l1.08 1.86c.06.12.204.156.336.12l1.332-.54c.276.216.576.396.912.528l.204 1.416a.27.27 0 00.264.228h2.148c.132 0 .252-.096.264-.228l.204-1.416c.324-.144.636-.312.9-.528l1.344.54c.12.048.264 0 .336-.12l1.08-1.86c.072-.108.036-.252-.06-.336zm-5.148.192a1.62 1.62 0 11.002-3.242 1.62 1.62 0 01-.002 3.242z"/></g></svg>
