<svg xmlns="http://www.w3.org/2000/svg" viewBox="0 0 24 24"><path d="M9.333 0l-.148.75-.563 2.74a9.483 9.483 0 00-2.459 1.414L3.407 3.98l-.74-.231-.386.663L.385 7.587 0 8.25l.563.49 2.133 1.818c-.077.472-.177.944-.177 1.442s.1.97.177 1.442L.563 15.26 0 15.75l.385.663 1.896 3.174.386.663.74-.23 2.756-.924a9.483 9.483 0 002.46 1.414l.562 2.74.148.75h5.334l.148-.75.563-2.74a9.483 9.483 0 002.459-1.414l2.756.923.74.231.386-.663 1.896-3.174.385-.663-.563-.49-2.133-1.818c.077-.472.177-.944.177-1.442s-.1-.97-.177-1.442l2.133-1.818.563-.49-.385-.663-1.896-3.174-.386-.663-.74.23-2.756.924a9.483 9.483 0 00-2.46-1.414L14.816.75 14.667 0H9.333zm1.541 1.846h2.252L13.6 4.24l.119.548.533.174a7.653 7.653 0 012.874 1.615l.415.375.533-.173 2.4-.808L21.6 7.846 19.704 9.49l-.445.347.148.548c.123.526.178 1.063.178 1.615s-.055 1.089-.178 1.615l-.118.548.415.347 1.896 1.644-1.126 1.875-2.4-.808-.533-.173-.415.375a7.653 7.653 0 01-2.874 1.615l-.533.174-.119.548-.474 2.394h-2.252L10.4 19.76l-.119-.548-.533-.174a7.653 7.653 0 01-2.874-1.615l-.415-.375-.533.173-2.4.808L2.4 16.154l1.896-1.644.445-.347-.148-.548A7.108 7.108 0 014.415 12c0-.552.055-1.089.178-1.615l.148-.548-.445-.347L2.4 7.846l1.126-1.875 2.4.808.533.173.415-.375a7.653 7.653 0 012.874-1.615l.533-.174.119-.548.474-2.394zM12 7.385c-2.607 0-4.74 2.077-4.74 4.615 0 2.538 2.133 4.615 4.74 4.615s4.74-2.077 4.74-4.615c0-2.538-2.133-4.615-4.74-4.615zm0 1.846c1.581 0 2.844 1.23 2.844 2.769 0 1.54-1.263 2.77-2.844 2.77S9.156 13.54 9.156 12 10.419 9.23 12 9.23z"/></svg>
