<?xml version="1.0" encoding="UTF-8"?>
<svg width="36" height="36" viewBox="0 0 36 36" xmlns="http://www.w3.org/2000/svg" xmlns:xlink="http://www.w3.org/1999/xlink">
    <path id="path1" fill="#000000" fill-rule="evenodd" stroke="none" d="M 14.197266 34 C 13.4968 34 12.914063 33.383003 12.914063 32.658203 C 12.914063 32.531364 12.946061 32.296219 12.996094 32.1875 L 14.539063 26.236328 C 14.415808 26.272768 14.283707 26.292969 14.142578 26.292969 C 13.758989 26.292969 13.593169 26.184023 13.292969 26.039063 L 1 19.320313 C 0.282856 18.921673 0 18.450279 0 17.761719 C 0 17.073156 0.282856 16.601765 1 16.203125 L 12.292969 9.501953 C 12.593169 9.356993 12.775667 9.248047 13.142578 9.248047 C 13.926434 9.248047 14.460938 9.827177 14.460938 10.642578 C 14.460938 11.22242 14.143368 11.693911 13.542969 12.001953 L 3.501953 17.669922 L 3.501953 17.833984 L 14.542969 23.519531 C 14.783484 23.650188 14.975672 23.805618 15.123047 23.980469 L 20.568359 2.978516 C 20.71846 2.380554 21.184755 2 21.785156 2 C 22.502302 2 23.08699 2.598877 23.070313 3.341797 C 23.070313 3.468636 23.037262 3.685661 23.003906 3.8125 L 21.587891 9.273438 C 21.674021 9.257429 21.763645 9.248047 21.857422 9.248047 C 22.224333 9.248047 22.40683 9.356993 22.707031 9.501953 L 35.015625 16.203125 C 35.716091 16.601765 36 17.073156 36 17.761719 C 36 18.450279 35.716091 18.921673 35.015625 19.320313 L 23.707031 26.039063 C 23.40683 26.184023 23.241011 26.292969 22.857422 26.292969 C 22.073565 26.292969 21.539063 25.693764 21.539063 24.896484 C 21.539063 24.316645 21.856632 23.845692 22.457031 23.519531 L 32.498047 17.833984 L 32.498047 17.669922 L 21.457031 12.001953 C 21.264448 11.903145 21.103846 11.786821 20.970703 11.65625 L 15.431641 33.021484 C 15.28154 33.619446 14.797664 34 14.197266 34 Z"/>
</svg>
